<?xml version="1.0" encoding="utf-8"?>
<!-- Generator: Adobe Illustrator 23.0.3, SVG Export Plug-In . SVG Version: 6.00 Build 0)  -->
<svg version="1.1" id="Layer_1" xmlns="http://www.w3.org/2000/svg" xmlns:xlink="http://www.w3.org/1999/xlink" x="0px" y="0px"
	 viewBox="0 0 350 230.4" style="enable-background:new 0 0 350 230.4;" xml:space="preserve">
<style type="text/css">
	.st0{clip-path:url(#SVGID_2_);fill:url(#SVGID_3_);}
	.st1{fill:#2E3C54;}
</style>
<g>
	<g>
		<g>
			<defs>
				<path id="SVGID_1_" d="M203.2,30.9c0,15.5-12.6,28.1-28.1,28.1c-15.5,0-28.1-12.6-28.1-28.1c0-15.5,12.6-28.1,28.1-28.1
					C190.6,2.7,203.2,15.3,203.2,30.9z M138.5,66c-15.5,0-28.1,12.6-28.1,28.1c0,15.5,12.6,28.1,28.1,28.1
					c15.5,0,28.1-12.6,28.1-28.1C166.6,78.6,154.1,66,138.5,66z M211.6,66c-15.5,0-28.1,12.6-28.1,28.1c0,15.5,12.6,28.1,28.1,28.1
					c15.5,0,28.1-12.6,28.1-28.1C239.7,78.6,227.1,66,211.6,66z"/>
			</defs>
			<clipPath id="SVGID_2_">
				<use xlink:href="#SVGID_1_"  style="overflow:visible;"/>
			</clipPath>
			
				<radialGradient id="SVGID_3_" cx="-5047.6797" cy="2767.8557" r="94.3918" gradientTransform="matrix(0 -0.75 0.75 0 -1900.8348 -3712.2214)" gradientUnits="userSpaceOnUse">
				<stop  offset="0" style="stop-color:#FFB900"/>
				<stop  offset="0.6" style="stop-color:#F95D8F"/>
				<stop  offset="0.9991" style="stop-color:#F95353"/>
			</radialGradient>
			<path class="st0" d="M175.1,2.7c39.1,0,70.8,31.7,70.8,70.8c0,39.1-31.7,70.8-70.8,70.8c-39.1,0-70.8-31.7-70.8-70.8
				C104.3,34.4,136,2.7,175.1,2.7z"/>
		</g>
	</g>
	<g>
		<path class="st1" d="M56.7,219.1c0.3,3.2,2.8,7.3,7.3,7.3h2.6c1,0,1.8-0.8,1.8-1.8v-57h0c-0.1-1-0.8-1.7-1.8-1.7h-8
			c-1,0-1.8,0.8-1.8,1.7h0v4.6c-4.9-6.1-12.7-8.6-20.5-8.6c-17.7,0-32,14.3-32,32c0,17.7,14.3,32,32,32v0
			C44.1,227.7,52.5,224.7,56.7,219.1L56.7,219.1z M36.3,216.5c-11.3,0-20.4-9.3-20.4-20.8c0-11.5,9.1-20.8,20.4-20.8
			s20.4,9.3,20.4,20.8C56.7,207.2,47.6,216.5,36.3,216.5z"/>
		<path class="st1" d="M187.7,219.1c0.3,3.2,2.8,7.3,7.3,7.3h2.6c1,0,1.8-0.8,1.8-1.8v-57h0c-0.1-1-0.8-1.7-1.8-1.7h-8
			c-1,0-1.8,0.8-1.8,1.7h0v4.6c-4.9-6.1-12.7-8.6-20.5-8.6c-17.7,0-32,14.3-32,32c0,17.7,14.3,32,32,32v0
			C175,227.7,183.5,224.7,187.7,219.1L187.7,219.1z M167.2,216.5c-11.3,0-20.4-9.3-20.4-20.8c0-11.5,9.1-20.8,20.4-20.8
			c11.3,0,20.4,9.3,20.4,20.8C187.6,207.2,178.5,216.5,167.2,216.5z"/>
		<path class="st1" d="M334.1,219.1c0.3,3.2,2.8,7.3,7.3,7.3h2.6c1,0,1.8-0.8,1.8-1.8v-57h0c-0.1-1-0.8-1.7-1.8-1.7h-8
			c-1,0-1.8,0.8-1.8,1.7h0v4.6c-4.9-6.1-12.7-8.6-20.5-8.6c-17.7,0-32,14.3-32,32c0,17.7,14.3,32,32,32v0
			C321.4,227.7,329.9,224.7,334.1,219.1L334.1,219.1z M313.6,216.5c-11.3,0-20.4-9.3-20.4-20.8c0-11.5,9.1-20.8,20.4-20.8
			c11.3,0,20.4,9.3,20.4,20.8C334,207.2,324.9,216.5,313.6,216.5z"/>
		<path class="st1" d="M271.4,221.1l0-29.5h0c0-16.6-10.5-27.8-27.2-27.8c-8,0-15.3,4.6-16.8,8.6c-0.5-3.1-2.1-6.4-7.3-6.4h-2.6
			c-1,0-1.8,0.8-1.8,1.8v51.5c0,0,0,0,0,0v5.4v0.1h0c0.1,1,0.8,1.7,1.8,1.7h5.4h2.6c0.1,0,0.2,0,0.4,0c0.1,0,0.1,0,0.2,0
			c0.1,0,0.1,0,0.2-0.1c0.1,0,0.1-0.1,0.2-0.1c0,0,0.1,0,0.1-0.1c0.1-0.1,0.2-0.1,0.2-0.2c0,0,0,0,0,0c0.1-0.1,0.2-0.2,0.2-0.3
			c0,0,0,0,0,0c0.2-0.3,0.3-0.6,0.3-1h0v-0.1v-3.6v-1v-29c0-8.9,7.2-16.2,16.2-16.2c8.9,0,16.2,7.2,16.2,16.2l0,28.1l0,0
			c0,0,0,0.1,0,0.1v5.4v0.1h0c0.1,1,0.8,1.7,1.8,1.7h5.4h2.6l0,0c0.1,0,0.2,0,0.4,0c0,0,0.1,0,0.1,0c0.1,0,0.1,0,0.2-0.1
			c0.1,0,0.1-0.1,0.2-0.1c0,0,0.1,0,0.1-0.1c0.1,0,0.1-0.1,0.2-0.2c0,0,0,0,0.1,0c0.1-0.1,0.1-0.2,0.2-0.2c0,0,0,0,0,0
			c0.2-0.3,0.3-0.6,0.3-1c0,0,0,0,0,0h0v-0.1L271.4,221.1L271.4,221.1z"/>
		<path class="st1" d="M87.6,211c5.4,3.7,11.2,5.5,16.9,5.5c5.4,0,10.9-2.8,10.9-7.6c0-6.5-12.1-7.5-19.7-10
			c-7.6-2.6-14.1-7.9-14.1-16.5c0-13.2,11.8-18.7,22.8-18.7c7,0,14.1,2.3,18.8,5.6c1.6,1.2,0.6,2.6,0.6,2.6l-4.4,6.3
			c-0.5,0.7-1.4,1.3-2.6,0.6c-1.3-0.8-5.7-3.9-12.4-3.9c-6.7,0-10.7,3.1-10.7,6.9c0,4.6,5.2,6,11.4,7.6c10.7,2.9,22.4,6.4,22.4,19.5
			c0,11.6-10.9,18.8-22.9,18.8c-9.1,0-16.9-2.6-23.4-7.4c-1.4-1.4-0.4-2.6-0.4-2.6l4.4-6.3C86,210.2,87.1,210.6,87.6,211z"/>
	</g>
</g>
</svg>
